<svg width="171" height="19" viewBox="0 0 171 19" fill="none" xmlns="http://www.w3.org/2000/svg">
<path d="M20.4336 11.2949V15H19.2852V5.19727H21.9785C23.0267 5.19727 23.8379 5.45247 24.4121 5.96289C24.9909 6.47331 25.2803 7.19336 25.2803 8.12305C25.2803 9.05273 24.959 9.8138 24.3164 10.4062C23.6784 10.9987 22.8148 11.2949 21.7256 11.2949H20.4336ZM20.4336 6.23633V10.2559H21.6367C22.4297 10.2559 23.0335 10.0758 23.4482 9.71582C23.8675 9.35124 24.0771 8.83854 24.0771 8.17773C24.0771 6.88346 23.3115 6.23633 21.7803 6.23633H20.4336ZM29.3887 15.1641C28.3542 15.1641 27.527 14.8382 26.9072 14.1865C26.292 13.5303 25.9844 12.6621 25.9844 11.582C25.9844 10.4062 26.3057 9.48796 26.9482 8.82715C27.5908 8.16634 28.459 7.83594 29.5527 7.83594C30.5964 7.83594 31.4098 8.15723 31.9932 8.7998C32.5811 9.44238 32.875 10.3333 32.875 11.4727C32.875 12.5892 32.5583 13.4847 31.9248 14.1592C31.2959 14.8291 30.4505 15.1641 29.3887 15.1641ZM29.4707 8.7793C28.7507 8.7793 28.181 9.02539 27.7617 9.51758C27.3424 10.0052 27.1328 10.6797 27.1328 11.541C27.1328 12.3704 27.3447 13.0244 27.7686 13.5029C28.1924 13.9814 28.7598 14.2207 29.4707 14.2207C30.1953 14.2207 30.7513 13.986 31.1387 13.5166C31.5306 13.0472 31.7266 12.3796 31.7266 11.5137C31.7266 10.6387 31.5306 9.96419 31.1387 9.49023C30.7513 9.01628 30.1953 8.7793 29.4707 8.7793ZM43.4844 8L41.3857 15H40.2236L38.7812 9.98926C38.7266 9.79785 38.6901 9.58138 38.6719 9.33984H38.6445C38.6309 9.50391 38.583 9.71582 38.501 9.97559L36.9355 15H35.8145L33.6953 8H34.8711L36.3203 13.2637C36.3659 13.4232 36.3978 13.6328 36.416 13.8926H36.4707C36.4844 13.6921 36.5254 13.4779 36.5938 13.25L38.207 8H39.2324L40.6816 13.2773C40.7272 13.446 40.7614 13.6556 40.7842 13.9062H40.8389C40.848 13.7285 40.8867 13.5189 40.9551 13.2773L42.377 8H43.4844ZM50.4092 11.7803H45.4668C45.485 12.5596 45.6947 13.1611 46.0957 13.585C46.4967 14.0088 47.0482 14.2207 47.75 14.2207C48.5384 14.2207 49.263 13.9609 49.9238 13.4414V14.4941C49.3086 14.9408 48.4951 15.1641 47.4834 15.1641C46.4945 15.1641 45.7174 14.8473 45.1523 14.2139C44.5872 13.5758 44.3047 12.6803 44.3047 11.5273C44.3047 10.4382 44.6123 9.55176 45.2275 8.86816C45.8473 8.18001 46.6152 7.83594 47.5312 7.83594C48.4473 7.83594 49.1559 8.13216 49.6572 8.72461C50.1585 9.31706 50.4092 10.1396 50.4092 11.1924V11.7803ZM49.2607 10.8301C49.2562 10.1829 49.099 9.67936 48.7891 9.31934C48.4837 8.95931 48.0576 8.7793 47.5107 8.7793C46.9821 8.7793 46.5332 8.96842 46.1641 9.34668C45.7949 9.72493 45.5671 10.2194 45.4805 10.8301H49.2607ZM55.7617 9.13477C55.5658 8.98438 55.2832 8.90918 54.9141 8.90918C54.4355 8.90918 54.0345 9.13477 53.7109 9.58594C53.3919 10.0371 53.2324 10.6523 53.2324 11.4316V15H52.1113V8H53.2324V9.44238H53.2598C53.4193 8.9502 53.6631 8.56738 53.9912 8.29395C54.3193 8.01595 54.6862 7.87695 55.0918 7.87695C55.3835 7.87695 55.6068 7.90885 55.7617 7.97266V9.13477ZM62.6045 11.7803H57.6621C57.6803 12.5596 57.89 13.1611 58.291 13.585C58.6921 14.0088 59.2435 14.2207 59.9453 14.2207C60.7337 14.2207 61.4583 13.9609 62.1191 13.4414V14.4941C61.5039 14.9408 60.6904 15.1641 59.6787 15.1641C58.6898 15.1641 57.9128 14.8473 57.3477 14.2139C56.7826 13.5758 56.5 12.6803 56.5 11.5273C56.5 10.4382 56.8076 9.55176 57.4229 8.86816C58.0426 8.18001 58.8105 7.83594 59.7266 7.83594C60.6426 7.83594 61.3512 8.13216 61.8525 8.72461C62.3538 9.31706 62.6045 10.1396 62.6045 11.1924V11.7803ZM61.4561 10.8301C61.4515 10.1829 61.2943 9.67936 60.9844 9.31934C60.679 8.95931 60.2529 8.7793 59.7061 8.7793C59.1774 8.7793 58.7285 8.96842 58.3594 9.34668C57.9902 9.72493 57.7624 10.2194 57.6758 10.8301H61.4561ZM70.2812 15H69.1602V13.8105H69.1328C68.6133 14.7129 67.8112 15.1641 66.7266 15.1641C65.847 15.1641 65.1429 14.8519 64.6143 14.2275C64.0902 13.5986 63.8281 12.7441 63.8281 11.6641C63.8281 10.5065 64.1198 9.5791 64.7031 8.88184C65.2865 8.18457 66.0635 7.83594 67.0342 7.83594C67.9958 7.83594 68.6953 8.21419 69.1328 8.9707H69.1602V4.63672H70.2812V15ZM69.1602 11.835V10.8027C69.1602 10.2376 68.9733 9.75911 68.5996 9.36719C68.2259 8.97526 67.752 8.7793 67.1777 8.7793C66.4941 8.7793 65.9564 9.02995 65.5645 9.53125C65.1725 10.0326 64.9766 10.7253 64.9766 11.6094C64.9766 12.416 65.1634 13.054 65.5371 13.5234C65.9154 13.9883 66.4212 14.2207 67.0547 14.2207C67.679 14.2207 68.1849 13.9951 68.5723 13.5439C68.9642 13.0928 69.1602 12.5231 69.1602 11.835ZM77.541 13.9883H77.5137V15H76.3926V4.63672H77.5137V9.23047H77.541C78.0924 8.30078 78.8991 7.83594 79.9609 7.83594C80.8587 7.83594 81.5605 8.15039 82.0664 8.7793C82.5768 9.40365 82.832 10.2422 82.832 11.2949C82.832 12.4661 82.5472 13.4049 81.9775 14.1113C81.4079 14.8132 80.6286 15.1641 79.6396 15.1641C78.7145 15.1641 78.015 14.7721 77.541 13.9883ZM77.5137 11.165V12.1426C77.5137 12.7214 77.7005 13.2135 78.0742 13.6191C78.4525 14.0202 78.931 14.2207 79.5098 14.2207C80.1888 14.2207 80.7197 13.9609 81.1025 13.4414C81.4899 12.9219 81.6836 12.1995 81.6836 11.2744C81.6836 10.4951 81.5036 9.88444 81.1436 9.44238C80.7835 9.00033 80.2959 8.7793 79.6807 8.7793C79.029 8.7793 78.5049 9.00716 78.1084 9.46289C77.7119 9.91406 77.5137 10.4814 77.5137 11.165ZM90.1943 8L86.9746 16.1211C86.4004 17.5703 85.5938 18.2949 84.5547 18.2949C84.263 18.2949 84.0192 18.2653 83.8232 18.2061V17.2012C84.0648 17.2832 84.2858 17.3242 84.4863 17.3242C85.0514 17.3242 85.4753 16.987 85.7578 16.3125L86.3184 14.9863L83.584 8H84.8281L86.7217 13.3867C86.7445 13.4551 86.7923 13.6328 86.8652 13.9199H86.9062C86.929 13.8105 86.9746 13.6374 87.043 13.4004L89.0322 8H90.1943ZM95.3965 15V5.19727H98.1035C101.558 5.19727 103.285 6.79004 103.285 9.97559C103.285 11.4886 102.804 12.7054 101.843 13.626C100.886 14.542 99.6029 15 97.9941 15H95.3965ZM96.5449 6.23633V13.9609H98.0078C99.293 13.9609 100.293 13.6169 101.009 12.9287C101.724 12.2406 102.082 11.2653 102.082 10.0029C102.082 7.49186 100.747 6.23633 98.0762 6.23633H96.5449ZM105.637 6.22266C105.436 6.22266 105.265 6.1543 105.124 6.01758C104.983 5.88086 104.912 5.70768 104.912 5.49805C104.912 5.28841 104.983 5.11523 105.124 4.97852C105.265 4.83724 105.436 4.7666 105.637 4.7666C105.842 4.7666 106.015 4.83724 106.156 4.97852C106.302 5.11523 106.375 5.28841 106.375 5.49805C106.375 5.69857 106.302 5.86947 106.156 6.01074C106.015 6.15202 105.842 6.22266 105.637 6.22266ZM106.184 15H105.062V8H106.184V15ZM114.428 14.4395C114.428 17.0098 113.197 18.2949 110.736 18.2949C109.87 18.2949 109.114 18.1309 108.467 17.8027V16.6816C109.255 17.1191 110.007 17.3379 110.723 17.3379C112.445 17.3379 113.307 16.4219 113.307 14.5898V13.8242H113.279C112.746 14.7174 111.944 15.1641 110.873 15.1641C110.003 15.1641 109.301 14.8542 108.768 14.2344C108.239 13.61 107.975 12.7738 107.975 11.7256C107.975 10.5361 108.259 9.59049 108.829 8.88867C109.403 8.18685 110.187 7.83594 111.181 7.83594C112.124 7.83594 112.824 8.21419 113.279 8.9707H113.307V8H114.428V14.4395ZM113.307 11.835V10.8027C113.307 10.2467 113.118 9.77051 112.739 9.37402C112.366 8.97754 111.898 8.7793 111.338 8.7793C110.645 8.7793 110.103 9.03223 109.711 9.53809C109.319 10.0394 109.123 10.7435 109.123 11.6504C109.123 12.4297 109.31 13.054 109.684 13.5234C110.062 13.9883 110.561 14.2207 111.181 14.2207C111.81 14.2207 112.32 13.9974 112.712 13.5508C113.108 13.1042 113.307 12.5322 113.307 11.835ZM117.271 6.22266C117.071 6.22266 116.9 6.1543 116.759 6.01758C116.618 5.88086 116.547 5.70768 116.547 5.49805C116.547 5.28841 116.618 5.11523 116.759 4.97852C116.9 4.83724 117.071 4.7666 117.271 4.7666C117.477 4.7666 117.65 4.83724 117.791 4.97852C117.937 5.11523 118.01 5.28841 118.01 5.49805C118.01 5.69857 117.937 5.86947 117.791 6.01074C117.65 6.15202 117.477 6.22266 117.271 6.22266ZM117.818 15H116.697V8H117.818V15ZM123.335 14.9316C123.071 15.0775 122.722 15.1504 122.289 15.1504C121.063 15.1504 120.45 14.4668 120.45 13.0996V8.95703H119.247V8H120.45V6.29102L121.571 5.92871V8H123.335V8.95703H121.571V12.9014C121.571 13.3708 121.651 13.7057 121.811 13.9062C121.97 14.1068 122.234 14.207 122.604 14.207C122.886 14.207 123.13 14.1296 123.335 13.9746V14.9316ZM129.843 15H128.722V13.9062H128.694C128.207 14.7448 127.489 15.1641 126.541 15.1641C125.844 15.1641 125.297 14.9795 124.9 14.6104C124.508 14.2412 124.312 13.7513 124.312 13.1406C124.312 11.8327 125.083 11.0716 126.623 10.8574L128.722 10.5635C128.722 9.37402 128.241 8.7793 127.279 8.7793C126.436 8.7793 125.675 9.06641 124.996 9.64062V8.49219C125.684 8.05469 126.477 7.83594 127.375 7.83594C129.02 7.83594 129.843 8.70638 129.843 10.4473V15ZM128.722 11.459L127.033 11.6914C126.514 11.7643 126.122 11.8942 125.857 12.0811C125.593 12.2633 125.461 12.5892 125.461 13.0586C125.461 13.4004 125.582 13.6807 125.823 13.8994C126.069 14.1136 126.395 14.2207 126.801 14.2207C127.357 14.2207 127.815 14.027 128.175 13.6396C128.539 13.2477 128.722 12.7533 128.722 12.1562V11.459ZM133.076 15H131.955V4.63672H133.076V15ZM144.164 8L142.065 15H140.903L139.461 9.98926C139.406 9.79785 139.37 9.58138 139.352 9.33984H139.324C139.311 9.50391 139.263 9.71582 139.181 9.97559L137.615 15H136.494L134.375 8H135.551L137 13.2637C137.046 13.4232 137.077 13.6328 137.096 13.8926H137.15C137.164 13.6921 137.205 13.4779 137.273 13.25L138.887 8H139.912L141.361 13.2773C141.407 13.446 141.441 13.6556 141.464 13.9062H141.519C141.528 13.7285 141.566 13.5189 141.635 13.2773L143.057 8H144.164ZM148.389 15.1641C147.354 15.1641 146.527 14.8382 145.907 14.1865C145.292 13.5303 144.984 12.6621 144.984 11.582C144.984 10.4062 145.306 9.48796 145.948 8.82715C146.591 8.16634 147.459 7.83594 148.553 7.83594C149.596 7.83594 150.41 8.15723 150.993 8.7998C151.581 9.44238 151.875 10.3333 151.875 11.4727C151.875 12.5892 151.558 13.4847 150.925 14.1592C150.296 14.8291 149.451 15.1641 148.389 15.1641ZM148.471 8.7793C147.751 8.7793 147.181 9.02539 146.762 9.51758C146.342 10.0052 146.133 10.6797 146.133 11.541C146.133 12.3704 146.345 13.0244 146.769 13.5029C147.192 13.9814 147.76 14.2207 148.471 14.2207C149.195 14.2207 149.751 13.986 150.139 13.5166C150.531 13.0472 150.727 12.3796 150.727 11.5137C150.727 10.6387 150.531 9.96419 150.139 9.49023C149.751 9.01628 149.195 8.7793 148.471 8.7793ZM157.316 9.13477C157.12 8.98438 156.838 8.90918 156.469 8.90918C155.99 8.90918 155.589 9.13477 155.266 9.58594C154.947 10.0371 154.787 10.6523 154.787 11.4316V15H153.666V8H154.787V9.44238H154.814C154.974 8.9502 155.218 8.56738 155.546 8.29395C155.874 8.01595 156.241 7.87695 156.646 7.87695C156.938 7.87695 157.161 7.90885 157.316 7.97266V9.13477ZM164.344 15H162.771L159.682 11.6367H159.654V15H158.533V4.63672H159.654V11.2061H159.682L162.621 8H164.091L160.844 11.377L164.344 15ZM165.068 14.7471V13.5439C165.679 13.9951 166.351 14.2207 167.085 14.2207C168.069 14.2207 168.562 13.8926 168.562 13.2363C168.562 13.0495 168.518 12.8923 168.432 12.7646C168.35 12.6325 168.236 12.5163 168.09 12.416C167.949 12.3158 167.78 12.2269 167.584 12.1494C167.393 12.0674 167.185 11.9831 166.962 11.8965C166.652 11.7734 166.379 11.6504 166.142 11.5273C165.909 11.3997 165.713 11.2585 165.554 11.1035C165.399 10.944 165.28 10.764 165.198 10.5635C165.121 10.363 165.082 10.1283 165.082 9.85938C165.082 9.53125 165.157 9.24186 165.308 8.99121C165.458 8.736 165.659 8.52409 165.909 8.35547C166.16 8.18229 166.445 8.05241 166.764 7.96582C167.087 7.87923 167.42 7.83594 167.762 7.83594C168.368 7.83594 168.91 7.94076 169.389 8.15039V9.28516C168.874 8.94792 168.281 8.7793 167.611 8.7793C167.402 8.7793 167.213 8.80436 167.044 8.85449C166.875 8.90007 166.729 8.96615 166.606 9.05273C166.488 9.13932 166.395 9.24414 166.326 9.36719C166.262 9.48568 166.23 9.61784 166.23 9.76367C166.23 9.94596 166.262 10.0986 166.326 10.2217C166.395 10.3447 166.493 10.4541 166.62 10.5498C166.748 10.6455 166.903 10.7321 167.085 10.8096C167.267 10.887 167.475 10.9714 167.707 11.0625C168.017 11.181 168.295 11.304 168.541 11.4316C168.787 11.5547 168.997 11.696 169.17 11.8555C169.343 12.0104 169.475 12.1904 169.566 12.3955C169.662 12.6006 169.71 12.8444 169.71 13.127C169.71 13.4733 169.632 13.7741 169.478 14.0293C169.327 14.2845 169.124 14.4964 168.869 14.665C168.614 14.8337 168.32 14.959 167.987 15.041C167.655 15.123 167.306 15.1641 166.941 15.1641C166.221 15.1641 165.597 15.0251 165.068 14.7471Z" fill="#212121"/>
<path d="M6.36328 12.2324C6.75 12.2324 7.08789 12.1152 7.37695 11.8809C7.66602 11.6465 7.82617 11.3535 7.85742 11.002H8.88281C8.86328 11.3652 8.73828 11.7109 8.50781 12.0391C8.27734 12.3672 7.96875 12.6289 7.58203 12.8242C7.19922 13.0195 6.79297 13.1172 6.36328 13.1172C5.5 13.1172 4.8125 12.8301 4.30078 12.2559C3.79297 11.6777 3.53906 10.8887 3.53906 9.88867V9.70703C3.53906 9.08984 3.65234 8.54102 3.87891 8.06055C4.10547 7.58008 4.42969 7.20703 4.85156 6.94141C5.27734 6.67578 5.7793 6.54297 6.35742 6.54297C7.06836 6.54297 7.6582 6.75586 8.12695 7.18164C8.59961 7.60742 8.85156 8.16016 8.88281 8.83984H7.85742C7.82617 8.42969 7.66992 8.09375 7.38867 7.83203C7.11133 7.56641 6.76758 7.43359 6.35742 7.43359C5.80664 7.43359 5.37891 7.63281 5.07422 8.03125C4.77344 8.42578 4.62305 8.99805 4.62305 9.74805V9.95312C4.62305 10.6836 4.77344 11.2461 5.07422 11.6406C5.375 12.0352 5.80469 12.2324 6.36328 12.2324Z" fill="#212121"/>
<circle cx="6" cy="10" r="5.5" stroke="#212121"/>
</svg>