<svg width="20" height="20" viewBox="0 0 20 20" fill="none" xmlns="http://www.w3.org/2000/svg">
<path d="M11.25 12.5V11.25H13.75V12.5H11.25ZM17.5 11.25V12.5H15V11.25H17.5ZM11.25 10V8.75H13.75V10H11.25ZM17.5 8.75V10H15V8.75H17.5ZM11.25 15V13.75H13.75V15H11.25ZM17.5 13.75V15H15V13.75H17.5ZM11.25 17.5V16.25H13.75V17.5H11.25ZM17.5 16.25V17.5H15V16.25H17.5ZM14.248 0L20 5.75195V20H3.75V16.7188L0 16.123V5L3.75 4.46289V0H14.248ZM4.375 11.4746H4.39453L5.58594 13.75H7.22656L5.33203 10.5957L7.17773 7.5H5.63477L4.44336 9.74609H4.42383L3.37891 7.5H1.68945L3.48633 10.625L1.52344 13.75H3.17383L4.375 11.4746ZM18.75 18.75V7.5H11.25V6.25H12.5V5H11.25V3.75H12.5V1.25H5V4.28711L8.75 3.75V17.5L5 16.9141V18.75H18.75ZM13.75 6.25H18.75L13.75 1.25V6.25Z" fill="#0854A0"/>
</svg>