<svg width="24" height="24" viewBox="0 0 24 24" fill="none" xmlns="http://www.w3.org/2000/svg">
<path d="M11.9996 1.99896C17.5233 1.99896 22.0011 6.47681 22.0011 12.0005C22.0011 17.5242 17.5233 22.0021 11.9996 22.0021C6.47589 22.0021 1.99805 17.5242 1.99805 12.0005C1.99805 6.47681 6.47589 1.99896 11.9996 1.99896ZM11.9996 3.49896C7.30432 3.49896 3.49805 7.30524 3.49805 12.0005C3.49805 16.6958 7.30432 20.5021 11.9996 20.5021C16.6949 20.5021 20.5011 16.6958 20.5011 12.0005C20.5011 7.30524 16.6949 3.49896 11.9996 3.49896ZM8.46134 14.7838C9.31047 15.8616 10.6015 16.5021 11.9996 16.5021C13.3958 16.5021 14.6853 15.8633 15.5345 14.788C15.7913 14.4629 16.2629 14.4076 16.588 14.6643C16.913 14.921 16.9684 15.3927 16.7117 15.7177C15.5809 17.1494 13.8597 18.0021 11.9996 18.0021C10.1369 18.0021 8.41371 17.1471 7.28311 15.7122C7.02676 15.3868 7.08271 14.9152 7.40806 14.6589C7.73342 14.4025 8.20499 14.4585 8.46134 14.7838ZM9.00005 8.75115C9.69001 8.75115 10.2493 9.31048 10.2493 10.0004C10.2493 10.6904 9.69001 11.2497 9.00005 11.2497C8.31008 11.2497 7.75076 10.6904 7.75076 10.0004C7.75076 9.31048 8.31008 8.75115 9.00005 8.75115ZM15 8.75115C15.69 8.75115 16.2493 9.31048 16.2493 10.0004C16.2493 10.6904 15.69 11.2497 15 11.2497C14.3101 11.2497 13.7508 10.6904 13.7508 10.0004C13.7508 9.31048 14.3101 8.75115 15 8.75115Z" fill="white"/>
</svg>