<svg width="64" height="47" viewBox="0 0 64 47" fill="none" xmlns="http://www.w3.org/2000/svg">
<g clip-path="url(#clip0_1418_98208)">
<g filter="url(#filter0_dd_1418_98208)">
<path d="M26.7623 3.44034L29.8305 6.50854H60.2034C60.7788 6.50854 61.3306 6.73711 61.7374 7.14397C62.1443 7.55083 62.3729 8.10265 62.3729 8.67803V42.3051C62.3729 42.8805 62.1443 43.4324 61.7374 43.8392C61.3306 44.2461 60.7788 44.4746 60.2034 44.4746H3.7966C3.22121 44.4746 2.6694 44.2461 2.26254 43.8392C1.85568 43.4324 1.62711 42.8805 1.62711 42.3051V4.33905C1.62711 3.76366 1.85568 3.21184 2.26254 2.80498C2.6694 2.39813 3.22121 2.16956 3.7966 2.16956H23.6941C24.2639 2.16953 24.8281 2.28175 25.3546 2.49979C25.881 2.71783 26.3594 3.03743 26.7623 3.44034Z" fill="black"/>
</g>
<path d="M26.7623 3.44034L29.8305 6.50854H60.2034C60.7788 6.50854 61.3306 6.73711 61.7374 7.14397C62.1443 7.55083 62.3729 8.10265 62.3729 8.67803V42.3051C62.3729 42.8805 62.1443 43.4324 61.7374 43.8392C61.3306 44.2461 60.7788 44.4746 60.2034 44.4746H3.7966C3.22121 44.4746 2.6694 44.2461 2.26254 43.8392C1.85568 43.4324 1.62711 42.8805 1.62711 42.3051V4.33905C1.62711 3.76366 1.85568 3.21184 2.26254 2.80498C2.6694 2.39813 3.22121 2.16956 3.7966 2.16956H23.6941C24.2639 2.16953 24.8281 2.28175 25.3546 2.49979C25.881 2.71783 26.3594 3.03743 26.7623 3.44034Z" fill="#FFB900"/>
<rect x="4" y="8" width="42" height="24" fill="white"/>
<path d="M26.7623 9.57663L29.8305 6.50842H60.2034C60.7788 6.50842 61.3306 6.73699 61.7375 7.14385C62.1443 7.55071 62.3729 8.10253 62.3729 8.67791V42.305C62.3729 42.8804 62.1443 43.4322 61.7375 43.8391C61.3306 44.246 60.7788 44.4745 60.2034 44.4745H3.79663C3.22124 44.4745 2.66942 44.246 2.26257 43.8391C1.85571 43.4322 1.62714 42.8804 1.62714 42.305V10.8474H23.6941C24.2639 10.8474 24.8282 10.7352 25.3546 10.5172C25.8811 10.2991 26.3594 9.97953 26.7623 9.57663Z" fill="#FFD75E"/>
<path style="mix-blend-mode:multiply" d="M26.7623 9.57663L29.8306 6.50842H60.2034C60.7788 6.50842 61.3306 6.73699 61.7375 7.14385C62.1444 7.55071 62.3729 8.10253 62.3729 8.67791V42.305C62.3729 42.8804 62.1444 43.4322 61.7375 43.8391C61.3306 44.246 60.7788 44.4745 60.2034 44.4745H3.79665C3.22127 44.4745 2.66945 44.246 2.26259 43.8391C1.85573 43.4322 1.62716 42.8804 1.62716 42.305V10.8474H23.6941C24.264 10.8474 24.8282 10.7352 25.3546 10.5172C25.8811 10.2991 26.3594 9.97953 26.7623 9.57663Z" fill="url(#paint0_linear_1418_98208)"/>
<path fill-rule="evenodd" clip-rule="evenodd" d="M1.62714 42.3051H62.3729H1.62714ZM61.9927 43.5324C61.7935 43.8231 61.5264 44.0608 61.2147 44.225C60.9029 44.3891 60.5558 44.4748 60.2034 44.4745H3.79663C3.44413 44.4748 3.09688 44.3891 2.78499 44.2248C2.4731 44.0606 2.20598 43.8227 2.0068 43.5319L2.70917 43.7944C2.95235 43.8855 3.20991 43.9321 3.46958 43.9322H60.5332C60.7934 43.9322 61.0515 43.8853 61.2952 43.7939L61.9927 43.5324Z" fill="#E67628"/>
<path opacity="0.4" d="M26.7623 9.57663L29.8305 6.50842H30.6441L27.1924 9.96008C26.7391 10.4134 26.201 10.7729 25.6088 11.0182C25.0166 11.2635 24.3818 11.3898 23.7408 11.3898H1.62714V10.8474H23.6941C24.2639 10.8474 24.8282 10.7352 25.3546 10.5172C25.8811 10.2991 26.3594 9.97953 26.7623 9.57663Z" fill="white"/>
</g>
<defs>
<filter id="filter0_dd_1418_98208" x="-1.97292" y="0.169556" width="67.9458" height="49.5051" filterUnits="userSpaceOnUse" color-interpolation-filters="sRGB">
<feFlood flood-opacity="0" result="BackgroundImageFix"/>
<feColorMatrix in="SourceAlpha" type="matrix" values="0 0 0 0 0 0 0 0 0 0 0 0 0 0 0 0 0 0 127 0" result="hardAlpha"/>
<feOffset dy="0.3"/>
<feGaussianBlur stdDeviation="0.45"/>
<feColorMatrix type="matrix" values="0 0 0 0 0 0 0 0 0 0 0 0 0 0 0 0 0 0 0.108 0"/>
<feBlend mode="normal" in2="BackgroundImageFix" result="effect1_dropShadow_1418_98208"/>
<feColorMatrix in="SourceAlpha" type="matrix" values="0 0 0 0 0 0 0 0 0 0 0 0 0 0 0 0 0 0 127 0" result="hardAlpha"/>
<feOffset dy="1.6"/>
<feGaussianBlur stdDeviation="1.8"/>
<feColorMatrix type="matrix" values="0 0 0 0 0 0 0 0 0 0 0 0 0 0 0 0 0 0 0.132 0"/>
<feBlend mode="normal" in2="effect1_dropShadow_1418_98208" result="effect2_dropShadow_1418_98208"/>
<feBlend mode="normal" in="SourceGraphic" in2="effect2_dropShadow_1418_98208" result="shape"/>
</filter>
<linearGradient id="paint0_linear_1418_98208" x1="35.468" y1="6.50842" x2="35.468" y2="44.4745" gradientUnits="userSpaceOnUse">
<stop stop-color="white" stop-opacity="0"/>
<stop offset="1" stop-color="#FFD75E" stop-opacity="0.3"/>
</linearGradient>
<clipPath id="clip0_1418_98208">
<rect width="64" height="46.6441" fill="white"/>
</clipPath>
</defs>
</svg>