<svg width="500" height="207" viewBox="0 0 500 207" fill="none" xmlns="http://www.w3.org/2000/svg">
<g clip-path="url(#clip0_2304_95195)">
<g opacity="0.7">
<path opacity="0.6" d="M500 161.619H0V161.869H500V161.619Z" fill="#EBEBEB"/>
<path opacity="0.6" d="M111.66 170.01H78.54V170.26H111.66V170.01Z" fill="#EBEBEB"/>
<path opacity="0.6" d="M163.5 177.22H133.33V177.47H163.5V177.22Z" fill="#EBEBEB"/>
<path opacity="0.6" d="M95.1 179.29H56.85V179.54H95.1V179.29Z" fill="#EBEBEB"/>
<path opacity="0.6" d="M449.9 178.75H434V179H449.9V178.75Z" fill="#EBEBEB"/>
<path opacity="0.6" d="M430.79 178.75H391.47V179H430.79V178.75Z" fill="#EBEBEB"/>
<path opacity="0.6" d="M280.33 169.88H250V170.13H280.33V169.88Z" fill="#EBEBEB"/>
<path opacity="0.6" d="M356.77 169.88H284.67V170.13H356.77V169.88Z" fill="#EBEBEB"/>
<path opacity="0.6" d="M413.95 0.000860245L272.763 141.188L288.086 156.51L429.273 15.3237L413.95 0.000860245Z" fill="#EBEBEB"/>
<path opacity="0.6" d="M361.93 82.6698L346.61 67.3398L325.72 88.2299L339.77 110.64L361.93 82.6698Z" fill="#E0E0E0"/>
<path opacity="0.6" d="M429.27 15.326L288.083 156.513L293.189 161.618L434.375 20.4313L429.27 15.326Z" fill="#E0E0E0"/>
<path opacity="0.6" d="M288.088 5.10294L272.765 20.4258L413.952 161.612L429.274 146.29L288.088 5.10294Z" fill="#EBEBEB"/>
<path opacity="0.6" d="M293.195 0.000206073L288.089 5.10547L429.276 146.292L434.381 141.187L293.195 0.000206073Z" fill="#E0E0E0"/>
<path opacity="0.6" d="M164.275 35.8354L54.3917 145.719L66.3205 157.648L176.204 47.7642L164.275 35.8354Z" fill="#EBEBEB"/>
<path opacity="0.6" d="M123.78 100.17L111.85 88.25L95.6 104.51L106.53 121.94L123.78 100.17Z" fill="#E0E0E0"/>
<path opacity="0.6" d="M176.191 47.7602L66.308 157.644L70.2819 161.617L180.165 51.7341L176.191 47.7602Z" fill="#E0E0E0"/>
<path opacity="0.6" d="M66.3273 39.8095L54.3986 51.7383L164.282 161.622L176.211 149.693L66.3273 39.8095Z" fill="#EBEBEB"/>
<path opacity="0.6" d="M70.2759 35.8327L66.302 39.8066L176.185 149.69L180.159 145.716L70.2759 35.8327Z" fill="#E0E0E0"/>
<path opacity="0.6" d="M318.87 54.3301H301.26V161.61H318.87V54.3301Z" fill="#F5F5F5"/>
<path opacity="0.6" d="M318.87 98.9092H301.26V111.779L318.87 107.979V98.9092Z" fill="#EBEBEB"/>
<path opacity="0.6" d="M324.73 54.3398H318.86V161.62H324.73V54.3398Z" fill="#EBEBEB"/>
<path opacity="0.6" d="M134.4 54.3301H116.79V161.61H134.4V54.3301Z" fill="#F5F5F5"/>
<path opacity="0.6" d="M134.39 98.9092H116.79V111.779L134.39 107.979V98.9092Z" fill="#EBEBEB"/>
<path opacity="0.6" d="M140.26 54.3398H134.39V161.62H140.26V54.3398Z" fill="#EBEBEB"/>
<path opacity="0.6" d="M328.11 70.0596H103.36V103.08H328.11V70.0596Z" fill="#F5F5F5"/>
<path opacity="0.6" d="M331.41 70.0498H328.11V103.07H331.41V70.0498Z" fill="#EBEBEB"/>
<path opacity="0.6" d="M242.73 36.3896H198.79L167.72 67.4596V111.4L198.79 142.47H242.73L273.8 111.4V67.4596L242.73 36.3896Z" fill="#FAFAFA"/>
<path opacity="0.6" d="M240.72 41.2393H200.8L172.57 69.4693V109.389L200.8 137.619H240.72L268.95 109.389V69.4693L240.72 41.2393Z" fill="#E0E0E0"/>
<path opacity="0.6" d="M220.14 89.4493C220.14 85.0093 221.01 81.5493 222.75 79.0693C225.73 75.0193 231.42 74.1493 235.47 77.1293C236.19 77.6593 236.83 78.2993 237.37 79.0093C239.12 81.4393 240 84.8493 240 89.2193C240.08 91.8793 239.7 94.5293 238.87 97.0493C238.25 98.9093 237.12 100.549 235.61 101.799C234.09 102.959 232.21 103.569 230.3 103.499C228.41 103.579 226.54 103.059 224.95 102.029C223.38 100.849 222.18 99.2393 221.51 97.3893C220.54 94.8593 220.08 92.1593 220.14 89.4493ZM226.05 89.4493C226.05 92.1993 226.41 94.1793 227.13 95.3693C227.98 96.9893 229.97 97.6193 231.6 96.7693C232.2 96.4593 232.69 95.9693 233 95.3693C233.7 94.1893 234 92.0793 234 89.0393C234.13 87.0993 233.76 85.1693 232.92 83.4193C232.33 82.3193 231.17 81.6293 229.92 81.6493C228.7 81.6593 227.59 82.3593 227.05 83.4493C226.38 84.6993 226.05 86.7193 226.05 89.4893V89.4493Z" fill="white"/>
<path opacity="0.6" d="M243.11 75.8193H252.93C254.8 75.6993 256.6 76.5093 257.74 77.9993C258.91 79.8393 259.47 81.9993 259.33 84.1793C259.46 86.4593 258.85 88.7193 257.59 90.6193C256.31 92.2193 254.32 93.0893 252.28 92.9393H249V103.039H243.07L243.11 75.8193ZM249 87.4293H250.45C251.34 87.5293 252.22 87.2093 252.85 86.5793C253.33 85.9593 253.57 85.1993 253.54 84.4193C253.59 83.6493 253.4 82.8793 253 82.2193C252.45 81.5593 251.6 81.2193 250.75 81.3293H249V87.4293Z" fill="white"/>
</g>
<path d="M250 206.78C357.082 206.78 443.89 201.712 443.89 195.46C443.89 189.208 357.082 184.14 250 184.14C142.917 184.14 56.11 189.208 56.11 195.46C56.11 201.712 142.917 206.78 250 206.78Z" fill="#F5F5F5"/>
<path d="M157.01 128.96H106.81V106.3L157.01 46.6299H181.01V107.63H193.46V129.01H181.03V147.55H157.03L157.01 128.96ZM157.01 107.58V76.3699L130.49 107.58H157.01Z" fill="#0358A7"/>
<path d="M393.18 46.6299V147.5H365.27V81.3999C361.2 84.5599 356.85 87.3499 352.27 89.7199C347.16 92.1899 341.85 94.2199 336.4 95.8099V73.2199C345.78 70.1899 353.06 66.5499 358.25 62.3199C363.44 58.0799 367.61 52.7099 370.43 46.6299H393.18Z" fill="#0358A7"/>
<path d="M267.29 156.88C298.61 156.88 324 131.49 324 100.17C324 68.8499 298.61 43.46 267.29 43.46C235.97 43.46 210.58 68.8499 210.58 100.17C210.58 131.49 235.97 156.88 267.29 156.88Z" fill="#5A5A5A"/>
<path d="M267.27 145.96C292.565 145.96 313.07 125.455 313.07 100.16C313.07 74.8657 292.565 54.3604 267.27 54.3604C241.975 54.3604 221.47 74.8657 221.47 100.16C221.47 125.455 241.975 145.96 267.27 145.96Z" fill="white"/>
<path d="M297.03 92.4196C293.27 87.3396 286.03 92.4196 283.86 97.7596C283.27 99.0796 282.88 100.49 282.71 101.93L280.32 85.6196L278.43 70.1596C278.01 67.3496 275.39 65.4096 272.57 65.8296C269.87 66.2396 267.95 68.6896 268.21 71.4096L267.74 67.5596C267.39 64.7396 264.82 62.7396 262 63.0796C259.18 63.4296 257.18 65.9996 257.52 68.8196L258.18 74.1796C257.83 71.3596 255.26 69.3496 252.44 69.6996C252.23 69.7296 252.01 69.7696 251.8 69.8196C249.29 70.4596 247.65 72.8696 247.96 75.4396L248.78 82.1296C248.44 79.3096 245.88 77.2996 243.06 77.6496C242.84 77.6796 242.62 77.7196 242.4 77.7696C239.89 78.4096 238.25 80.8096 238.57 83.3796L240.21 96.7496L241.38 106.34L242.93 118.93C244.03 127.93 247.54 133.01 252.75 135.3C260.75 138.81 275.4 138.85 281.98 133.51C287.74 128.84 291.44 117.59 292.33 110.62C293.22 103.65 298.56 94.4696 297.03 92.4196Z" fill="#0358A7"/>
<path d="M296.328 53.381L228.88 139.68L238.216 146.977L305.665 60.6782L296.328 53.381Z" fill="#5A5A5A"/>
</g>
<defs>
<clipPath id="clip0_2304_95195">
<rect width="500" height="206.78" fill="white"/>
</clipPath>
</defs>
</svg>