<svg width="79" height="12" viewBox="0 0 79 12" fill="none" xmlns="http://www.w3.org/2000/svg">
<path d="M5.5268 4.95689V6.64761H8.34737V8.76101L8.30925 8.79944C7.50882 9.45267 6.78462 9.72165 5.75549 9.72165C2.8968 9.72165 1.86768 7.6851 1.86768 5.91753C1.86768 3.45829 3.46854 1.72915 5.75549 1.72915C6.78462 1.72915 7.81375 2.15183 8.53795 2.80506L9.68143 1.61387C8.61418 0.576382 7.20389 0 5.71738 0C1.75333 0 0 2.95876 0 5.91753C0 8.60731 1.48652 11.4892 5.71738 11.4892C7.50882 11.4892 8.84288 10.8744 10.0245 9.56795V4.95689H5.5268Z" fill="white"/>
<path d="M15.59 3.38147C14.8277 3.38147 14.0654 3.49675 13.4937 4.45738L13.3793 4.68794L13.1888 3.61202H11.5879V11.2587H13.3031V7.18559C13.3031 5.87913 14.0654 5.11062 15.3232 5.11062C15.9712 5.11062 16.3142 5.26432 16.6954 5.57172L17.4577 4.07313C17.0384 3.61202 16.3142 3.38147 15.59 3.38147Z" fill="white"/>
<path d="M24.776 4.45736C24.128 3.72727 23.0989 3.34302 21.8411 3.34302C19.4398 3.34302 17.8008 4.95689 17.8008 7.33927C17.8008 9.87535 19.4016 11.4124 21.9554 11.4124C23.2132 11.4124 24.4329 10.9513 25.1571 10.2212L24.0518 9.14526C23.5563 9.60637 22.6415 9.83692 21.9935 9.83692C20.6595 9.83692 19.7066 9.18369 19.5922 8.10778V7.9925H25.6908C25.8432 6.45548 25.5002 5.26429 24.776 4.45736ZM19.6303 6.57076L19.6685 6.45548C19.9353 5.45642 20.8119 4.84161 21.9173 4.84161C23.137 4.84161 23.8993 5.41799 24.0137 6.45548V6.57076H19.6303Z" fill="white"/>
<path d="M33.733 4.45736C33.085 3.72727 32.0559 3.34302 30.7981 3.34302C28.3968 3.34302 26.7578 4.95689 26.7578 7.33927C26.7578 9.87535 28.3587 11.4124 30.9124 11.4124C32.1703 11.4124 33.39 10.9513 34.1142 10.2212L33.0088 9.14526C32.5133 9.60637 31.5985 9.83692 30.9124 9.83692C29.5784 9.83692 28.6255 9.18369 28.5111 8.10778V7.9925H34.6097C34.7621 6.45548 34.4572 5.26429 33.733 4.45736ZM28.5493 6.57076L28.5874 6.45548C28.8542 5.45642 29.7309 4.84161 30.8362 4.84161C32.0559 4.84161 32.8182 5.41799 32.9326 6.45548V6.57076H28.5493Z" fill="white"/>
<path d="M40.3266 3.45831C39.4119 3.45831 38.6495 3.80414 37.8491 4.61108L37.6966 4.76478L37.5442 3.57359H36.0195V11.2203H37.7347V7.30086C37.7347 5.99439 38.6114 4.99533 39.793 4.99533C40.9746 4.99533 41.775 5.84069 41.775 7.18558V11.1818H43.4903V7.18558C43.4903 4.9569 42.2324 3.45831 40.3266 3.45831Z" fill="white"/>
<path d="M52.753 0.307434V4.99534H47.1499V0.307434H45.2441V11.2203H47.1499V6.72449H52.753V11.2203H54.6206V0.307434H52.753Z" fill="white"/>
<path d="M62.7002 7.30087L62.8526 7.26245C65.2158 6.76292 65.5588 4.91849 65.5588 3.881C65.5588 2.15186 64.3391 0.307434 61.671 0.307434C60.7944 0.307434 59.9177 0.307434 59.041 0.307434C58.2025 0.307434 57.3639 0.307434 56.5254 0.307434V11.2587H58.4312V7.53143H60.5657L63.7674 11.2587H66.0925L62.7002 7.30087ZM58.4312 5.80228V2.03658H61.671C63.0432 2.03658 63.6531 2.99722 63.6531 3.91943C63.6531 4.84164 63.0432 5.80228 61.671 5.80228H58.4312Z" fill="white"/>
<path d="M76.1938 0.307434L72.6871 5.14905L69.1805 0.307434H66.9316V11.2203H68.8374V2.95879L72.4966 7.99253H72.8015L76.5369 2.95879V11.2203H78.4427V0.307434H76.1938Z" fill="white"/>
</svg>