<svg width="24" height="24" viewBox="0 0 24 24" fill="none" xmlns="http://www.w3.org/2000/svg">
<path d="M12.0125 2.25C12.7465 2.25846 13.4776 2.34326 14.194 2.50304C14.5067 2.57279 14.7406 2.83351 14.7761 3.15196L14.9463 4.67881C15.0234 5.37986 15.6153 5.91084 16.3209 5.91158C16.5106 5.91188 16.6982 5.87238 16.8735 5.79483L18.2741 5.17956C18.5654 5.05159 18.9058 5.12136 19.1232 5.35362C20.1354 6.43464 20.8892 7.73115 21.328 9.14558C21.4226 9.45058 21.3137 9.78203 21.0567 9.9715L19.8152 10.8866C19.461 11.1468 19.2519 11.56 19.2519 11.9995C19.2519 12.4389 19.461 12.8521 19.816 13.1129L21.0585 14.0283C21.3157 14.2177 21.4246 14.5492 21.33 14.8543C20.8914 16.2685 20.138 17.5649 19.1264 18.6461C18.9092 18.8783 18.5691 18.9483 18.2778 18.8206L16.8715 18.2045C16.4691 18.0284 16.0071 18.0542 15.6268 18.274C15.2466 18.4937 14.9936 18.8812 14.9453 19.3177L14.7762 20.8444C14.7413 21.1592 14.5125 21.4182 14.2043 21.4915C12.7559 21.8361 11.2468 21.8361 9.79834 21.4915C9.49021 21.4182 9.26135 21.1592 9.22649 20.8444L9.05767 19.32C9.00808 18.8843 8.75465 18.498 8.37473 18.279C7.99481 18.06 7.53351 18.0343 7.13251 18.2094L5.72588 18.8256C5.43453 18.9533 5.09434 18.8833 4.87709 18.6509C3.86493 17.5685 3.1115 16.2705 2.67351 14.8548C2.57917 14.5499 2.68817 14.2186 2.94515 14.0293L4.18848 13.1133C4.54262 12.8531 4.75178 12.4399 4.75178 12.0005C4.75178 11.561 4.54262 11.1478 4.18802 10.8873L2.94547 9.97285C2.6881 9.78345 2.579 9.45178 2.67367 9.14658C3.11242 7.73215 3.86625 6.43564 4.87843 5.35462C5.0959 5.12236 5.43624 5.05259 5.72755 5.18056L7.12793 5.79572C7.53087 5.97256 7.99411 5.94585 8.37608 5.72269C8.7564 5.50209 9.00959 5.11422 9.05847 4.67764L9.22855 3.15196C9.26407 2.83335 9.49817 2.57254 9.81111 2.50294C10.5284 2.34342 11.2603 2.25865 12.0125 2.25ZM12 8.99995C10.3431 8.99995 9 10.3431 9 12C9 13.6568 10.3431 15 12 15C13.6569 15 15 13.6568 15 12C15 10.3431 13.6569 8.99995 12 8.99995Z" fill="#0357A6"/>
</svg>