<svg width="204" height="300" viewBox="0 0 204 300" fill="none" xmlns="http://www.w3.org/2000/svg">
<path d="M19.5759 0V244.91L34.6946 229.732L48.5333 244.91L66.257 229.792L79.6741 244.91L95.0638 231.304L111.432 247.934L126.581 231.304L141.203 247.934L158.505 231.304L173.488 247.934L187.718 231.304L203.093 247.934V52.822L151.036 0.544245L19.5759 0Z" fill="#F1F1F1"/>
<path d="M151.036 0.543945V52.7159H203.093L151.036 0.543945Z" fill="#DCDCDC"/>
<path d="M80.3818 136.092H87.2032V143.47H80.3818V155.73H71.2112V143.47H47.4942L47.2382 137.861L70.9251 100.61H80.3968V136.092H80.3818ZM56.8455 136.092H71.2112V113.083L70.5336 114.292L56.8455 136.092Z" fill="#0358A7"/>
<path d="M129.066 132.539C129.066 140.461 127.59 146.447 124.638 150.469C121.687 154.49 117.185 156.501 111.161 156.501C105.228 156.501 100.756 154.536 97.7592 150.62C94.7626 146.704 93.2116 140.884 93.1363 133.189V123.65C93.1363 115.728 94.612 109.786 97.5634 105.81C100.515 101.834 105.032 99.8691 111.086 99.8691C117.094 99.8691 121.582 101.804 124.533 105.659C127.485 109.514 129.005 115.305 129.081 123V132.539H129.066ZM119.91 122.244C119.91 117.073 119.202 113.279 117.802 110.86C116.386 108.456 114.158 107.247 111.086 107.247C108.089 107.247 105.891 108.396 104.49 110.678C103.075 112.961 102.337 116.529 102.262 121.367V133.869C102.262 139.025 102.984 142.849 104.415 145.374C105.846 147.899 108.104 149.154 111.161 149.154C114.098 149.154 116.281 147.989 117.681 145.646C119.082 143.318 119.835 139.66 119.91 134.686V122.244Z" fill="#0358A7"/>
<path d="M168.172 136.092H174.994V143.47H168.172V155.73H159.002V143.47H135.3L135.044 137.861L158.731 100.61H168.202V136.092H168.172ZM144.651 136.092H159.017V113.083L158.339 114.292L144.651 136.092Z" fill="#0358A7"/>
<path d="M101.81 298.216L58.5923 254.827L67.1153 246.271L110.333 289.659C112.682 292.017 112.682 295.842 110.333 298.216C107.969 300.589 104.159 300.589 101.81 298.216Z" fill="#7C7C7C"/>
<path d="M67.1083 246.28L58.59 254.832L68.024 264.303L76.5422 255.751L67.1083 246.28Z" fill="#5A5A5A"/>
<path d="M38.399 188.974C17.1967 188.974 0 206.238 0 227.524C0 248.81 17.1967 266.075 38.399 266.075C59.6012 266.075 76.7979 248.81 76.7979 227.524C76.7979 206.238 59.6012 188.974 38.399 188.974ZM38.399 260.028C20.5246 260.028 6.02337 245.469 6.02337 227.524C6.02337 209.579 20.5246 195.021 38.399 195.021C56.2733 195.021 70.7745 209.579 70.7745 227.524C70.7745 245.469 56.2733 260.028 38.399 260.028Z" fill="#AFAFAF"/>
</svg>