<svg width="16" height="14" viewBox="0 0 16 14" fill="none" xmlns="http://www.w3.org/2000/svg">
<path d="M7.79162 0.5C8.10804 0.5 8.36962 0.735008 8.41104 1.04007L8.41679 1.12488L8.41779 7.16667H14.462C14.8072 7.16667 15.087 7.4465 15.087 7.79167C15.087 8.10808 14.8519 8.36958 14.5469 8.411L14.462 8.41667H8.41779L8.41945 14.4576C8.41954 14.8028 8.13979 15.0828 7.79462 15.0828C7.4782 15.0828 7.21662 14.8478 7.1752 14.5427L7.16945 14.4578L7.16779 8.41667H1.12695C0.78177 8.41667 0.501953 8.13683 0.501953 7.79167C0.501953 7.47525 0.737078 7.21375 1.04214 7.17233L1.12695 7.16667H7.16779L7.16679 1.12512C7.1667 0.77995 7.44645 0.5 7.79162 0.5Z" fill="#0358A7"/>
</svg>