<svg width="64" height="64" viewBox="0 0 64 64" fill="none" xmlns="http://www.w3.org/2000/svg">
<path d="M40.172 5H13C12.4696 5 11.9609 5.21071 11.5858 5.58579C11.2107 5.96086 11 6.46957 11 7V57C11 57.5304 11.2107 58.0391 11.5858 58.4142C11.9609 58.7893 12.4696 59 13 59H51C51.5304 59 52.0391 58.7893 52.4142 58.4142C52.7893 58.0391 53 57.5304 53 57V17.828C52.9999 17.2976 52.7891 16.789 52.414 16.414L41.586 5.586C41.211 5.2109 40.7024 5.00011 40.172 5Z" fill="white" stroke="#979593" stroke-miterlimit="10"/>
<path d="M41 5V15C41 15.5304 41.2107 16.0391 41.5858 16.4142C41.9609 16.7893 42.4696 17 43 17H53" stroke="#979593" stroke-miterlimit="10"/>
<path d="M47 26H17C16.7348 26 16.4804 25.8946 16.2929 25.7071C16.1054 25.5196 16 25.2652 16 25C16 24.7348 16.1054 24.4804 16.2929 24.2929C16.4804 24.1054 16.7348 24 17 24H47C47.2652 24 47.5196 24.1054 47.7071 24.2929C47.8946 24.4804 48 24.7348 48 25C48 25.2652 47.8946 25.5196 47.7071 25.7071C47.5196 25.8946 47.2652 26 47 26ZM47 30H17C16.7348 30 16.4804 29.8946 16.2929 29.7071C16.1054 29.5196 16 29.2652 16 29C16 28.7348 16.1054 28.4804 16.2929 28.2929C16.4804 28.1054 16.7348 28 17 28H47C47.2652 28 47.5196 28.1054 47.7071 28.2929C47.8946 28.4804 48 28.7348 48 29C48 29.2652 47.8946 29.5196 47.7071 29.7071C47.5196 29.8946 47.2652 30 47 30Z" fill="#C8C6C4"/>
<path d="M47 38.202H17C16.7348 38.202 16.4804 38.0967 16.2929 37.9091C16.1054 37.7216 16 37.4672 16 37.202C16 36.9368 16.1054 36.6825 16.2929 36.4949C16.4804 36.3074 16.7348 36.202 17 36.202H47C47.2652 36.202 47.5196 36.3074 47.7071 36.4949C47.8946 36.6825 48 36.9368 48 37.202C48 37.4672 47.8946 37.7216 47.7071 37.9091C47.5196 38.0967 47.2652 38.202 47 38.202ZM47 42.202H17C16.7348 42.202 16.4804 42.0967 16.2929 41.9091C16.1054 41.7216 16 41.4672 16 41.202C16 40.9368 16.1054 40.6825 16.2929 40.4949C16.4804 40.3074 16.7348 40.202 17 40.202H47C47.2652 40.202 47.5196 40.3074 47.7071 40.4949C47.8946 40.6825 48 40.9368 48 41.202C48 41.4672 47.8946 41.7216 47.7071 41.9091C47.5196 42.0967 47.2652 42.202 47 42.202Z" fill="#C8C6C4"/>
<path d="M47 34H17C16.7348 34 16.4804 33.8946 16.2929 33.7071C16.1054 33.5196 16 33.2652 16 33C16 32.7348 16.1054 32.4804 16.2929 32.2929C16.4804 32.1054 16.7348 32 17 32H47C47.2652 32 47.5196 32.1054 47.7071 32.2929C47.8946 32.4804 48 32.7348 48 33C48 33.2652 47.8946 33.5196 47.7071 33.7071C47.5196 33.8946 47.2652 34 47 34Z" fill="#C8C6C4"/>
<path d="M47 46.202H17C16.7348 46.202 16.4804 46.0967 16.2929 45.9091C16.1054 45.7216 16 45.4672 16 45.202C16 44.9368 16.1054 44.6825 16.2929 44.4949C16.4804 44.3074 16.7348 44.202 17 44.202H47C47.2652 44.202 47.5196 44.3074 47.7071 44.4949C47.8946 44.6825 48 44.9368 48 45.202C48 45.4672 47.8946 45.7216 47.7071 45.9091C47.5196 46.0967 47.2652 46.202 47 46.202Z" fill="#C8C6C4"/>
<rect x="8.91138" y="38.8861" width="46.1772" height="13.7721" rx="3" fill="#0358A7"/>
<g clip-path="url(#clip0_1416_97977)">
<path d="M20.3182 43.206H18.1003V49.7182H16.8263V43.206H14.6175V42.1417H20.3182V43.206Z" fill="white"/>
<path d="M24.4701 49.7182H23.2603V48.8704H23.2328C22.857 49.5198 22.2979 49.8445 21.5647 49.8445C21.024 49.8445 20.6024 49.7002 20.2908 49.4116C19.9792 49.1229 19.8417 48.7351 19.8417 48.2661C19.8417 47.2469 20.4374 46.6516 21.6381 46.4802L23.2695 46.2547C23.2695 45.479 22.8937 45.1002 22.1513 45.1002C21.5006 45.1002 20.9048 45.3257 20.3824 45.7676V44.6853C20.9598 44.3425 21.6289 44.1802 22.3896 44.1802C23.7827 44.1802 24.4701 44.8566 24.4701 46.2006V49.7182ZM23.2603 47.0574L22.1055 47.2198C21.748 47.2649 21.4822 47.3461 21.2989 47.4723C21.1156 47.5986 21.0332 47.8151 21.0332 48.1308C21.0332 48.3563 21.1156 48.5457 21.2806 48.69C21.4456 48.8343 21.6655 48.9155 21.9497 48.9155C22.3254 48.9155 22.6462 48.7802 22.8937 48.5186C23.1411 48.2571 23.2695 47.9233 23.2695 47.5265V47.0574H23.2603Z" fill="white"/>
<path d="M30.9774 49.7182H29.8501V45.7495C29.7768 45.8938 29.6668 46.0833 29.5201 46.3358L27.2013 49.7182H25.9824V44.3064H27.128V48.1939C27.1647 48.1037 27.2472 47.9413 27.3846 47.7158L29.7309 44.2974H30.9866V49.7182H30.9774ZM30.6199 41.6997C30.565 42.2319 30.345 42.6468 29.9601 42.9534C29.5751 43.2601 29.0894 43.4134 28.512 43.4134C27.9162 43.4134 27.4305 43.2601 27.0639 42.9534C26.6972 42.6468 26.4773 42.2319 26.4406 41.6997H27.4763C27.5221 42.3401 27.8796 42.6648 28.5211 42.6648C28.8052 42.6648 29.0435 42.5836 29.236 42.4123C29.4285 42.2409 29.5385 42.0064 29.5843 41.6997H30.6199Z" fill="white"/>
<path d="M37.1547 49.7182H35.8991V45.2444H34.7809C34.6251 46.9221 34.3501 48.0946 33.9744 48.7711C33.5986 49.4476 33.0762 49.7903 32.4346 49.7903C32.2238 49.7903 32.0313 49.7633 31.8847 49.7001V48.7801C32.013 48.8433 32.1413 48.8703 32.288 48.8703C33.0578 48.8703 33.5528 47.346 33.7727 44.3064H37.1639V49.7182H37.1547Z" fill="white"/>
<path d="M43.0021 49.7182H41.7923V48.8704H41.7739C41.3982 49.5198 40.8391 49.8445 40.1059 49.8445C39.5651 49.8445 39.1435 49.7002 38.8319 49.4116C38.5203 49.1229 38.3737 48.7441 38.3737 48.2661C38.3737 47.2469 38.9694 46.6516 40.17 46.4802L41.8014 46.2547C41.8014 45.479 41.4257 45.1002 40.6833 45.1002C40.0326 45.1002 39.4368 45.3257 38.9144 45.7676V44.6853C39.4918 44.3425 40.1609 44.1802 40.9216 44.1802C42.3147 44.1802 43.0021 44.8566 43.0021 46.2006V49.7182ZM41.7923 47.0574L40.6375 47.2198C40.28 47.2649 40.0142 47.3461 39.8309 47.4723C39.6476 47.5986 39.556 47.8151 39.556 48.1308C39.556 48.3563 39.6385 48.5457 39.8034 48.69C39.9684 48.8343 40.1975 48.9155 40.4817 48.9155C40.8574 48.9155 41.1782 48.7802 41.4257 48.5186C41.6731 48.2571 41.8014 47.9233 41.8014 47.5265V47.0574H41.7923Z" fill="white"/>
<path d="M49.4177 49.7182H48.1621V47.346H45.77V49.7092H44.5143V44.2974H45.77V46.426H48.1621V44.3064H49.4177V49.7182Z" fill="white"/>
</g>
<defs>
<clipPath id="clip0_1416_97977">
<rect width="38.076" height="8.91139" fill="white" transform="translate(12.962 41.3164)"/>
</clipPath>
</defs>
</svg>