<svg width="20" height="20" viewBox="0 0 20 20" fill="none" xmlns="http://www.w3.org/2000/svg">
<path d="M4.5 3.00099C4.22386 3.00099 4 2.77713 4 2.50099C4 2.25553 4.17688 2.05138 4.41013 2.00904L4.5 2.00099L15.5 2.00099C15.7761 2.00099 16 2.22485 16 2.50099C16 2.74645 15.8231 2.9506 15.5899 2.99293L15.5 3.00099L4.5 3.00099ZM9.99986 17.9988C9.7544 17.9988 9.5503 17.8218 9.50803 17.5885L9.5 17.4986L9.504 5.70478L5.85859 9.35311C5.68519 9.52684 5.41578 9.54637 5.22079 9.41155L5.15149 9.35376C4.97776 9.18036 4.95823 8.91095 5.09304 8.71596L5.15083 8.64666L9.64255 4.14666C9.71505 4.07403 9.80433 4.02835 9.89793 4.00963L10.0039 3.99988C10.1649 3.99988 10.3081 4.07601 10.3995 4.1942L14.8561 8.64608C15.0515 8.8412 15.0518 9.15779 14.8566 9.35319C14.6832 9.52688 14.4138 9.54635 14.2188 9.4115L14.1495 9.35369L10.504 5.71278L10.5 17.4989C10.4999 17.7751 10.276 17.9988 9.99986 17.9988Z" fill="#212121"/>
</svg>